<svg xmlns="http://www.w3.org/2000/svg" xmlns:xlink="http://www.w3.org/1999/xlink" width="512" zoomAndPan="magnify" viewBox="0 0 384 383.999986" height="512" preserveAspectRatio="xMidYMid meet" version="1.2"><defs><clipPath id="f4b5056e17"><path d="M 75 0 L 309 0 C 350.421875 0 384 33.578125 384 75 L 384 309 C 384 350.421875 350.421875 384 309 384 L 75 384 C 33.578125 384 0 350.421875 0 309 L 0 75 C 0 33.578125 33.578125 0 75 0 Z M 75 0 "/></clipPath><linearGradient x1="128" gradientTransform="matrix(1.5,0,0,1.5,0.0000072,0)" y1="0" x2="128" gradientUnits="userSpaceOnUse" y2="255.999989" id="3ab68f22d4"><stop style="stop-color:#e32924;stop-opacity:1;" offset="0"/><stop style="stop-color:#e32924;stop-opacity:1;" offset="0.03125"/><stop style="stop-color:#e22924;stop-opacity:1;" offset="0.0625"/><stop style="stop-color:#e12824;stop-opacity:1;" offset="0.09375"/><stop style="stop-color:#e12824;stop-opacity:1;" offset="0.125"/><stop style="stop-color:#e02824;stop-opacity:1;" offset="0.15625"/><stop style="stop-color:#e02823;stop-opacity:1;" offset="0.1875"/><stop style="stop-color:#df2723;stop-opacity:1;" offset="0.21875"/><stop style="stop-color:#de2723;stop-opacity:1;" offset="0.25"/><stop style="stop-color:#de2723;stop-opacity:1;" offset="0.28125"/><stop style="stop-color:#dd2723;stop-opacity:1;" offset="0.3125"/><stop style="stop-color:#dc2623;stop-opacity:1;" offset="0.34375"/><stop style="stop-color:#dc2623;stop-opacity:1;" offset="0.375"/><stop style="stop-color:#db2623;stop-opacity:1;" offset="0.40625"/><stop style="stop-color:#db2623;stop-opacity:1;" offset="0.4375"/><stop style="stop-color:#da2523;stop-opacity:1;" offset="0.46875"/><stop style="stop-color:#d92522;stop-opacity:1;" offset="0.5"/><stop style="stop-color:#d92522;stop-opacity:1;" offset="0.53125"/><stop style="stop-color:#d82522;stop-opacity:1;" offset="0.5625"/><stop style="stop-color:#d72422;stop-opacity:1;" offset="0.59375"/><stop style="stop-color:#d72422;stop-opacity:1;" offset="0.625"/><stop style="stop-color:#d62422;stop-opacity:1;" offset="0.65625"/><stop style="stop-color:#d62422;stop-opacity:1;" offset="0.6875"/><stop style="stop-color:#d52322;stop-opacity:1;" offset="0.71875"/><stop style="stop-color:#d42322;stop-opacity:1;" offset="0.75"/><stop style="stop-color:#d42322;stop-opacity:1;" offset="0.78125"/><stop style="stop-color:#d32322;stop-opacity:1;" offset="0.8125"/><stop style="stop-color:#d22221;stop-opacity:1;" offset="0.84375"/><stop style="stop-color:#d22221;stop-opacity:1;" offset="0.875"/><stop style="stop-color:#d12221;stop-opacity:1;" offset="0.90625"/><stop style="stop-color:#d12221;stop-opacity:1;" offset="0.9375"/><stop style="stop-color:#d02121;stop-opacity:1;" offset="0.96875"/><stop style="stop-color:#cf2121;stop-opacity:1;" offset="1"/></linearGradient><clipPath id="af33c35c62"><path d="M 187 38.398438 L 242 38.398438 L 242 92 L 187 92 Z M 187 38.398438 "/></clipPath></defs><g id="16ca1f24d3"><rect x="0" width="384" y="0" height="383.999986" style="fill:#ffffff;fill-opacity:1;stroke:none;"/><rect x="0" width="384" y="0" height="383.999986" style="fill:#ffffff;fill-opacity:1;stroke:none;"/><g clip-rule="nonzero" clip-path="url(#f4b5056e17)"><rect x="0" width="384" y="0" height="383.999986" style="fill:url(#3ab68f22d4);stroke:none;"/></g><path style=" stroke:none;fill-rule:nonzero;fill:#ffffff;fill-opacity:1;" d="M 213.59375 183.292969 C 213.96875 182.890625 214.324219 182.464844 214.640625 182.015625 C 214.929688 182.429688 215.25 182.824219 215.59375 183.199219 C 214.929688 183.234375 214.265625 183.265625 213.59375 183.292969 Z M 213.59375 183.292969 "/><path style=" stroke:none;fill-rule:nonzero;fill:#ffffff;fill-opacity:1;" d="M 241.539062 181.386719 C 239.941406 181.386719 238.351562 181.511719 236.808594 181.746094 C 235.9375 181.808594 235.035156 181.871094 234.125 181.941406 C 234.394531 181.546875 234.652344 181.140625 234.875 180.710938 L 235.066406 180.34375 C 237.039062 176.503906 241.851562 166.890625 246.742188 155.390625 L 246.742188 181.839844 C 245.003906 181.550781 243.253906 181.386719 241.539062 181.386719 Z M 241.539062 181.386719 "/><path style=" stroke:none;fill-rule:nonzero;fill:#ffffff;fill-opacity:1;" d="M 194.355469 180.648438 C 194.871094 181.636719 195.503906 182.527344 196.234375 183.308594 C 191.253906 183.058594 186.703125 182.5625 182.527344 181.8125 L 182.527344 155.394531 C 187.417969 166.898438 192.226562 176.503906 194.199219 180.34375 Z M 194.355469 180.648438 "/><path style=" stroke:none;fill-rule:nonzero;fill:#ffffff;fill-opacity:1;" d="M 295.425781 176.042969 C 294.554688 176.136719 293.691406 176.269531 292.835938 176.445312 C 291.980469 176.621094 291.132812 176.835938 290.296875 177.097656 C 289.460938 177.355469 288.640625 177.65625 287.835938 177.992188 C 287.03125 178.332031 286.242188 178.710938 285.472656 179.128906 C 284.707031 179.546875 283.957031 180 283.234375 180.488281 C 282.511719 180.980469 281.8125 181.503906 281.140625 182.0625 C 280.464844 182.621094 279.824219 183.210938 279.207031 183.835938 C 278.59375 184.457031 278.011719 185.109375 277.460938 185.785156 C 276.910156 186.464844 276.394531 187.171875 275.910156 187.902344 C 275.429688 188.632812 274.984375 189.382812 274.578125 190.15625 C 274.171875 190.929688 273.800781 191.722656 273.472656 192.53125 C 273.140625 193.34375 272.851562 194.167969 272.605469 195.003906 C 272.355469 195.84375 272.148438 196.691406 271.984375 197.550781 C 271.816406 198.410156 271.695312 199.273438 271.613281 200.144531 C 271.535156 201.015625 271.496094 201.890625 271.5 202.765625 C 271.507812 203.640625 271.554688 204.511719 271.644531 205.378906 C 271.734375 206.25 271.871094 207.113281 272.046875 207.972656 C 272.222656 208.828125 272.4375 209.671875 272.699219 210.507812 C 272.957031 211.34375 273.253906 212.164062 273.59375 212.972656 C 273.933594 213.777344 274.3125 214.5625 274.730469 215.332031 C 275.148438 216.101562 275.601562 216.847656 276.089844 217.574219 C 276.582031 218.296875 277.105469 218.996094 277.664062 219.667969 C 278.222656 220.339844 278.8125 220.984375 279.4375 221.597656 C 280.058594 222.214844 280.707031 222.796875 281.386719 223.347656 C 282.066406 223.898438 282.773438 224.414062 283.503906 224.894531 C 284.230469 225.378906 284.984375 225.820312 285.757812 226.230469 C 286.53125 226.636719 287.324219 227.007812 288.132812 227.335938 C 288.945312 227.664062 289.769531 227.957031 290.605469 228.203125 C 291.445312 228.453125 292.292969 228.660156 293.152344 228.824219 C 294.011719 228.992188 294.875 229.113281 295.746094 229.195312 C 296.617188 229.273438 297.488281 229.3125 298.363281 229.308594 C 299.238281 229.300781 300.109375 229.253906 300.980469 229.164062 C 301.851562 229.070312 302.714844 228.9375 303.570312 228.761719 C 304.425781 228.585938 305.273438 228.371094 306.109375 228.109375 C 306.945312 227.851562 307.765625 227.550781 308.570312 227.214844 C 309.375 226.875 310.164062 226.496094 310.933594 226.078125 C 311.703125 225.660156 312.449219 225.207031 313.171875 224.71875 C 313.898438 224.226562 314.59375 223.703125 315.269531 223.144531 C 315.941406 222.585938 316.585938 221.996094 317.199219 221.371094 C 317.8125 220.75 318.394531 220.097656 318.945312 219.421875 C 319.496094 218.742188 320.015625 218.035156 320.496094 217.304688 C 320.976562 216.574219 321.421875 215.824219 321.828125 215.050781 C 322.238281 214.277344 322.605469 213.484375 322.933594 212.675781 C 323.265625 211.863281 323.554688 211.039062 323.804688 210.203125 C 324.050781 209.363281 324.257812 208.515625 324.425781 207.65625 C 324.589844 206.796875 324.710938 205.933594 324.792969 205.0625 C 324.875 204.191406 324.910156 203.316406 324.90625 202.441406 C 324.902344 201.566406 324.851562 200.695312 324.761719 199.828125 C 324.671875 198.957031 324.539062 198.09375 324.363281 197.234375 C 324.1875 196.378906 323.96875 195.535156 323.710938 194.699219 C 323.449219 193.863281 323.152344 193.042969 322.8125 192.234375 C 322.472656 191.429688 322.09375 190.644531 321.675781 189.875 C 321.261719 189.105469 320.808594 188.359375 320.316406 187.632812 C 319.824219 186.910156 319.300781 186.210938 318.742188 185.539062 C 318.183594 184.867188 317.59375 184.222656 316.972656 183.609375 C 316.347656 182.992188 315.699219 182.410156 315.019531 181.859375 C 314.339844 181.308594 313.636719 180.792969 312.90625 180.3125 C 312.175781 179.828125 311.421875 179.386719 310.648438 178.976562 C 309.875 178.570312 309.082031 178.199219 308.273438 177.871094 C 307.464844 177.542969 306.640625 177.25 305.800781 177.003906 C 304.960938 176.753906 304.113281 176.546875 303.253906 176.382812 C 302.394531 176.214844 301.53125 176.09375 300.660156 176.011719 C 299.789062 175.933594 298.917969 175.894531 298.042969 175.898438 C 297.167969 175.90625 296.296875 175.953125 295.425781 176.042969 Z M 295.425781 176.042969 "/><path style=" stroke:none;fill-rule:nonzero;fill:#ffffff;fill-opacity:1;" d="M 239.90625 226.773438 C 224.292969 229.953125 212.285156 231.035156 199.085938 229.824219 C 224.25 226.605469 241.679688 215.488281 246.992188 211.695312 L 247.15625 211.582031 L 247.199219 211.554688 L 247.257812 211.507812 C 249.792969 209.601562 251.433594 206.820312 251.871094 203.679688 C 252.316406 200.542969 251.507812 197.417969 249.601562 194.886719 C 247.339844 191.878906 243.878906 190.152344 240.109375 190.152344 C 237.527344 190.152344 235.070312 190.972656 233.003906 192.523438 C 232.828125 192.648438 232.648438 192.773438 232.402344 192.945312 C 231.648438 193.457031 230.828125 193.980469 229.96875 194.503906 C 227.910156 195.753906 224.542969 197.640625 220.167969 199.554688 C 212.441406 202.941406 200.175781 206.976562 185.589844 206.972656 C 175.027344 206.964844 164.523438 204.863281 154.378906 200.726562 C 152.945312 200.140625 151.4375 199.84375 149.894531 199.84375 C 145.050781 199.84375 140.734375 202.742188 138.902344 207.230469 C 138.882812 207.28125 138.867188 207.335938 138.847656 207.386719 C 133.554688 206.96875 127.496094 206.6875 120.726562 206.6875 C 103.855469 206.6875 82.679688 208.425781 58.476562 214.09375 C 57.335938 214.363281 56.199219 214.488281 55.078125 214.488281 C 48.339844 214.488281 42.242188 209.871094 40.640625 203.03125 C 38.773438 195.054688 43.726562 187.070312 51.703125 185.199219 C 78.347656 178.957031 101.824219 177.011719 120.726562 177.011719 C 146.480469 177.015625 163.746094 180.613281 169.179688 181.917969 C 171.09375 182.015625 173.3125 182.300781 175.898438 182.78125 C 183.386719 184.757812 191.507812 185.597656 199.621094 185.816406 C 201.238281 186.625 203.035156 187.085938 204.914062 187.085938 C 206.777344 187.085938 208.632812 186.632812 210.296875 185.78125 C 213.023438 185.703125 215.710938 185.582031 218.34375 185.429688 C 218.511719 185.53125 218.675781 185.640625 218.855469 185.734375 C 220.550781 186.617188 222.449219 187.085938 224.347656 187.085938 C 227.101562 187.085938 229.691406 186.144531 231.757812 184.496094 C 233.585938 184.359375 235.371094 184.222656 237.0625 184.109375 C 249.207031 182.195312 262.6875 188.375 263.933594 198.742188 C 265.179688 209.113281 257.894531 223.003906 239.90625 226.773438 Z M 239.90625 226.773438 "/><path style=" stroke:none;fill-rule:nonzero;fill:#ffffff;fill-opacity:1;" d="M 153.484375 202.925781 C 165.011719 207.625 175.785156 209.335938 185.589844 209.347656 C 200.019531 209.351562 212.394531 205.554688 221.121094 201.730469 C 225.476562 199.824219 228.914062 197.921875 231.199219 196.535156 C 232.34375 195.839844 233.199219 195.273438 233.746094 194.902344 C 234.015625 194.71875 234.210938 194.578125 234.324219 194.5 C 234.378906 194.460938 234.414062 194.433594 234.429688 194.421875 L 234.429688 194.425781 C 238.617188 191.285156 244.558594 192.128906 247.710938 196.3125 C 250.863281 200.503906 250.027344 206.457031 245.835938 209.609375 C 244.96875 210.179688 221.175781 228.226562 185.589844 228.335938 C 185.574219 228.335938 185.550781 228.335938 185.53125 228.335938 C 173.503906 228.339844 160.179688 226.175781 146.308594 220.507812 C 141.453125 218.53125 139.121094 212.984375 141.101562 208.128906 C 143.085938 203.273438 148.625 200.941406 153.484375 202.925781 Z M 153.484375 202.925781 "/><path style=" stroke:none;fill-rule:nonzero;fill:#ffffff;fill-opacity:1;" d="M 253.59375 130.117188 C 246.457031 153.5625 232.890625 179.339844 232.773438 179.613281 C 231.078125 182.859375 227.773438 184.710938 224.347656 184.710938 C 222.867188 184.710938 221.363281 184.363281 219.957031 183.628906 C 218.164062 182.691406 216.796875 181.257812 215.933594 179.585938 C 216.039062 179.316406 216.148438 179.042969 216.238281 178.761719 C 217.0625 176.125 216.949219 173.351562 215.9375 170.824219 C 215.9375 170.820312 215.9375 170.816406 215.941406 170.8125 C 215.945312 170.808594 216.277344 170.171875 216.90625 168.921875 C 219.113281 164.558594 224.730469 153.144531 229.703125 140.671875 C 232.1875 134.441406 234.511719 127.945312 236.167969 122.046875 C 237.835938 116.175781 238.765625 110.816406 238.742188 107.457031 C 238.742188 107.386719 238.738281 107.328125 238.738281 107.257812 L 236.367188 107.234375 C 236.367188 107.304688 236.367188 107.375 236.367188 107.449219 C 236.390625 110.628906 235.464844 115.835938 233.882812 121.398438 C 232.386719 126.730469 230.238281 132.917969 227.496094 139.792969 C 222.519531 152.28125 216.953125 163.574219 214.789062 167.851562 C 214.734375 167.96875 214.6875 168.054688 214.632812 168.160156 C 214.582031 168.058594 214.535156 167.96875 214.480469 167.855469 C 212.3125 163.574219 206.746094 152.28125 201.769531 139.792969 C 199.03125 132.9375 196.882812 126.75 195.386719 121.40625 C 193.804688 115.835938 192.875 110.628906 192.898438 107.476562 L 190.5625 106.261719 C 190.539062 106.617188 190.523438 107.015625 190.523438 107.457031 C 190.5 110.816406 191.429688 116.175781 193.097656 122.046875 C 194.753906 127.945312 197.074219 134.441406 199.5625 140.671875 C 204.53125 153.144531 210.148438 164.558594 212.355469 168.921875 C 212.988281 170.171875 213.324219 170.808594 213.324219 170.8125 C 215.753906 175.460938 213.957031 181.199219 209.308594 183.628906 C 207.902344 184.363281 206.398438 184.710938 204.914062 184.710938 C 201.492188 184.710938 198.1875 182.855469 196.492188 179.613281 C 196.371094 179.339844 182.808594 153.5625 175.667969 130.117188 C 173.304688 122.226562 171.5625 114.644531 171.527344 107.457031 C 171.542969 104.078125 171.914062 100.695312 173.269531 97.257812 C 173.300781 97.179688 173.324219 97.105469 173.359375 97.027344 C 174.734375 93.546875 177.636719 89.929688 181.648438 88.042969 C 184.28125 86.773438 187.132812 86.261719 189.871094 86.261719 C 189.941406 86.261719 190.011719 86.273438 190.082031 86.273438 C 190.609375 86.179688 191.148438 86.121094 191.703125 86.121094 L 194.554688 86.121094 C 199.777344 91.117188 206.851562 94.195312 214.632812 94.195312 C 222.414062 94.195312 229.484375 91.117188 234.710938 86.121094 L 237.5625 86.121094 C 238.117188 86.121094 238.65625 86.179688 239.179688 86.273438 C 239.253906 86.269531 239.320312 86.261719 239.394531 86.261719 C 242.128906 86.257812 244.980469 86.769531 247.613281 88.042969 C 251.625 89.925781 254.53125 93.546875 255.902344 97.023438 C 257.335938 100.539062 257.714844 103.992188 257.734375 107.445312 C 257.734375 107.449219 257.734375 107.449219 257.734375 107.453125 C 257.699219 114.644531 255.957031 122.226562 253.59375 130.117188 Z M 253.59375 130.117188 "/><g clip-rule="nonzero" clip-path="url(#af33c35c62)"><path style=" stroke:none;fill-rule:nonzero;fill:#ffffff;fill-opacity:1;" d="M 187.921875 65.109375 C 187.921875 65.984375 187.964844 66.859375 188.050781 67.726562 C 188.136719 68.597656 188.265625 69.464844 188.433594 70.320312 C 188.605469 71.179688 188.816406 72.027344 189.070312 72.863281 C 189.324219 73.699219 189.621094 74.523438 189.953125 75.332031 C 190.289062 76.140625 190.664062 76.929688 191.074219 77.703125 C 191.488281 78.472656 191.9375 79.222656 192.421875 79.949219 C 192.910156 80.675781 193.429688 81.378906 193.984375 82.054688 C 194.539062 82.730469 195.125 83.378906 195.746094 83.996094 C 196.363281 84.617188 197.011719 85.203125 197.6875 85.757812 C 198.363281 86.3125 199.066406 86.832031 199.792969 87.320312 C 200.519531 87.804688 201.269531 88.253906 202.039062 88.667969 C 202.8125 89.078125 203.601562 89.453125 204.410156 89.785156 C 205.21875 90.121094 206.042969 90.417969 206.878906 90.671875 C 207.714844 90.925781 208.5625 91.136719 209.421875 91.308594 C 210.277344 91.476562 211.144531 91.605469 212.015625 91.691406 C 212.882812 91.777344 213.757812 91.820312 214.632812 91.820312 C 215.507812 91.820312 216.378906 91.777344 217.25 91.691406 C 218.121094 91.605469 218.984375 91.476562 219.84375 91.308594 C 220.699219 91.136719 221.546875 90.925781 222.386719 90.671875 C 223.222656 90.417969 224.046875 90.121094 224.851562 89.785156 C 225.660156 89.453125 226.453125 89.078125 227.222656 88.667969 C 227.996094 88.253906 228.742188 87.804688 229.472656 87.320312 C 230.199219 86.832031 230.898438 86.3125 231.578125 85.757812 C 232.253906 85.203125 232.898438 84.617188 233.519531 83.996094 C 234.136719 83.378906 234.722656 82.730469 235.277344 82.054688 C 235.832031 81.378906 236.355469 80.675781 236.839844 79.949219 C 237.328125 79.222656 237.777344 78.472656 238.1875 77.703125 C 238.601562 76.929688 238.972656 76.140625 239.308594 75.332031 C 239.644531 74.523438 239.9375 73.699219 240.191406 72.863281 C 240.445312 72.027344 240.65625 71.179688 240.828125 70.320312 C 241 69.464844 241.128906 68.597656 241.214844 67.726562 C 241.300781 66.859375 241.34375 65.984375 241.34375 65.109375 C 241.34375 64.234375 241.300781 63.363281 241.214844 62.492188 C 241.128906 61.621094 241 60.757812 240.828125 59.898438 C 240.65625 59.042969 240.445312 58.195312 240.191406 57.355469 C 239.9375 56.519531 239.644531 55.695312 239.308594 54.886719 C 238.972656 54.082031 238.601562 53.289062 238.1875 52.519531 C 237.777344 51.746094 237.328125 51 236.839844 50.269531 C 236.355469 49.542969 235.832031 48.839844 235.277344 48.164062 C 234.722656 47.488281 234.136719 46.839844 233.519531 46.222656 C 232.898438 45.605469 232.253906 45.019531 231.578125 44.464844 C 230.898438 43.90625 230.199219 43.386719 229.472656 42.902344 C 228.742188 42.414062 227.996094 41.964844 227.222656 41.554688 C 226.453125 41.140625 225.660156 40.769531 224.851562 40.433594 C 224.046875 40.097656 223.222656 39.804688 222.386719 39.550781 C 221.546875 39.296875 220.699219 39.082031 219.84375 38.914062 C 218.984375 38.742188 218.121094 38.613281 217.25 38.527344 C 216.378906 38.441406 215.507812 38.398438 214.632812 38.398438 C 213.757812 38.398438 212.882812 38.441406 212.015625 38.527344 C 211.144531 38.613281 210.277344 38.742188 209.421875 38.914062 C 208.5625 39.082031 207.714844 39.296875 206.878906 39.550781 C 206.042969 39.804688 205.21875 40.097656 204.410156 40.433594 C 203.601562 40.769531 202.8125 41.140625 202.039062 41.554688 C 201.269531 41.964844 200.519531 42.414062 199.792969 42.902344 C 199.066406 43.386719 198.363281 43.90625 197.6875 44.464844 C 197.011719 45.019531 196.363281 45.605469 195.746094 46.222656 C 195.125 46.839844 194.539062 47.488281 193.984375 48.164062 C 193.429688 48.839844 192.910156 49.542969 192.421875 50.269531 C 191.9375 51 191.488281 51.746094 191.074219 52.519531 C 190.664062 53.289062 190.289062 54.082031 189.953125 54.886719 C 189.621094 55.695312 189.324219 56.519531 189.070312 57.355469 C 188.816406 58.195312 188.605469 59.042969 188.433594 59.898438 C 188.265625 60.757812 188.136719 61.621094 188.050781 62.492188 C 187.964844 63.363281 187.921875 64.234375 187.921875 65.109375 Z M 187.921875 65.109375 "/></g><path style=" stroke:none;fill-rule:evenodd;fill:#ffffff;fill-opacity:1;" d="M 360.832031 113.351562 C 370.929688 101.265625 370.175781 83.457031 358.601562 72.230469 C 347.730469 61.6875 330.949219 60.46875 318.707031 68.550781 C 306.46875 60.46875 289.683594 61.6875 278.816406 72.230469 C 271.890625 78.949219 268.839844 88.019531 269.667969 96.8125 L 282.234375 96.8125 L 287.777344 83.875 C 288.476562 82.25 290.066406 81.1875 291.835938 81.167969 C 293.609375 81.148438 295.222656 82.175781 295.957031 83.789062 L 303.683594 100.792969 L 310.445312 89.972656 C 311.230469 88.722656 312.574219 87.9375 314.046875 87.875 C 315.519531 87.8125 316.929688 88.480469 317.8125 89.660156 L 323.179688 96.8125 L 327.648438 96.8125 L 327.648438 105.753906 L 320.945312 105.753906 C 319.535156 105.753906 318.210938 105.089844 317.367188 103.964844 L 314.574219 100.242188 L 306.851562 112.59375 C 305.980469 113.988281 304.410156 114.792969 302.765625 114.683594 C 301.125 114.574219 299.675781 113.574219 298.992188 112.074219 L 292.007812 96.703125 L 289.289062 103.042969 C 288.585938 104.6875 286.96875 105.753906 285.179688 105.753906 L 271.929688 105.753906 C 273.070312 108.441406 274.625 111.003906 276.582031 113.351562 C 276.789062 113.707031 277.042969 114.035156 277.34375 114.328125 L 315.59375 151.429688 C 317.328125 153.113281 320.085938 153.113281 321.820312 151.429688 L 360.074219 114.328125 C 360.371094 114.035156 360.628906 113.707031 360.832031 113.351562 Z M 360.832031 113.351562 "/><g style="fill:#ffffff;fill-opacity:1;"><g transform="translate(45.107496, 324.581043)"><path style="stroke:none" d="M 27.625 1.8125 C 10.863281 1.8125 2.484375 -7.921875 2.484375 -27.390625 C 2.484375 -46.867188 10.863281 -56.609375 27.625 -56.609375 C 30.269531 -56.609375 32.851562 -56.304688 35.375 -55.703125 C 37.90625 -55.097656 39.890625 -54.457031 41.328125 -53.78125 L 42.234375 -39.734375 C 40.953125 -40.492188 39.234375 -41.175781 37.078125 -41.78125 C 34.929688 -42.382812 32.722656 -42.6875 30.453125 -42.6875 C 26.378906 -42.6875 23.453125 -41.515625 21.671875 -39.171875 C 19.898438 -36.828125 19.015625 -32.90625 19.015625 -27.40625 C 19.015625 -21.894531 19.898438 -17.96875 21.671875 -15.625 C 23.453125 -13.28125 26.378906 -12.109375 30.453125 -12.109375 C 32.941406 -12.109375 35.359375 -12.429688 37.703125 -13.078125 C 40.046875 -13.722656 41.96875 -14.421875 43.46875 -15.171875 L 41.21875 -0.796875 C 39.78125 -0.117188 37.816406 0.484375 35.328125 1.015625 C 32.835938 1.546875 30.269531 1.8125 27.625 1.8125 Z M 27.625 1.8125 "/></g></g><g style="fill:#ffffff;fill-opacity:1;"><g transform="translate(89.934102, 324.581043)"><path style="stroke:none" d="M 2.609375 0 L 2.609375 -56.609375 L 27.515625 -56.609375 C 34.609375 -56.609375 39.925781 -54.925781 43.46875 -51.5625 C 47.019531 -48.207031 48.796875 -43.4375 48.796875 -37.25 C 48.796875 -31.0625 47.019531 -26.304688 43.46875 -22.984375 C 39.925781 -19.660156 34.609375 -18 27.515625 -18 L 18.796875 -18 L 18.796875 0 Z M 18.796875 -30.90625 L 26.5 -30.90625 C 28.53125 -30.90625 30.054688 -31.453125 31.078125 -32.546875 C 32.097656 -33.640625 32.609375 -35.207031 32.609375 -37.25 C 32.609375 -39.289062 32.097656 -40.875 31.078125 -42 C 30.054688 -43.132812 28.53125 -43.703125 26.5 -43.703125 L 18.796875 -43.703125 Z M 18.796875 -30.90625 "/></g></g><g style="fill:#ffffff;fill-opacity:1;"><g transform="translate(141.326222, 324.581043)"><path style="stroke:none" d="M 51.40625 0 L 33.859375 0 L 25.140625 -19.25 L 19.140625 -19.25 L 19.140625 0 L 3.0625 0 L 3.0625 -56.609375 L 28.078125 -56.609375 C 35.097656 -56.609375 40.378906 -54.984375 43.921875 -51.734375 C 47.472656 -48.492188 49.25 -43.851562 49.25 -37.8125 C 49.25 -30.039062 46.304688 -24.679688 40.421875 -21.734375 Z M 19.140625 -43.703125 L 19.140625 -31.703125 L 26.953125 -31.703125 C 31.023438 -31.703125 33.0625 -33.703125 33.0625 -37.703125 C 33.0625 -41.703125 31.023438 -43.703125 26.953125 -43.703125 Z M 19.140625 -43.703125 "/></g></g><g style="fill:#ffffff;fill-opacity:1;"><g transform="translate(192.831544, 324.581043)"><path style="stroke:none" d="M 4.875 -27.28125 L 4.875 -38.828125 L 26.5 -38.828125 L 26.5 -27.28125 Z M 4.875 -27.28125 "/></g></g><g style="fill:#ffffff;fill-opacity:1;"><g transform="translate(224.413919, 324.581043)"><path style="stroke:none" d="M 37.359375 -56.609375 L 51.96875 -56.609375 L 51.96875 0 L 37.8125 0 L 18.5625 -31.359375 L 18.5625 0 L 3.96875 0 L 3.96875 -56.609375 L 18.109375 -56.609375 L 37.359375 -25.25 Z M 37.359375 -56.609375 "/></g></g><g style="fill:#ffffff;fill-opacity:1;"><g transform="translate(280.220783, 324.581043)"><path style="stroke:none" d="M 39.40625 0 L 36.453125 -10.078125 L 19.140625 -10.078125 L 16.1875 0 L -0.671875 0 L 19.703125 -56.609375 L 36 -56.609375 L 56.5 0 Z M 22.640625 -21.96875 L 32.953125 -21.96875 L 27.734375 -39.625 Z M 22.640625 -21.96875 "/></g></g></g></svg>